<svg width="150" height="43" viewBox="0 0 150 43" fill="none" xmlns="http://www.w3.org/2000/svg">
<g id="Property 1=normal">
<rect id="Rectangle" width="150" height="43" rx="5" fill="#3531A9"/>
<path id="Talk to us" d="M46.7598 28V16.7412H50.7588V15.3174H41.1787V16.7412H45.1777V28H46.7598ZM52.833 26.8574C51.7344 26.8574 51.0049 26.2861 51.0049 25.416C51.0049 24.5547 51.708 24.0098 52.9385 23.9307L55.3818 23.7812V24.5283C55.3818 25.8467 54.2744 26.8574 52.833 26.8574ZM52.4902 28.1582C53.7207 28.1582 54.8809 27.4727 55.4258 26.4268H55.4609V28H56.9111V21.6807C56.9111 19.8613 55.5576 18.7012 53.4131 18.7012C51.251 18.7012 49.8975 19.9141 49.792 21.4961H51.2686C51.4619 20.5996 52.2002 20.0459 53.3779 20.0459C54.6436 20.0459 55.3818 20.7139 55.3818 21.8301V22.5947L52.7627 22.7441C50.6533 22.8672 49.4492 23.8516 49.4492 25.416C49.4492 27.0596 50.6709 28.1582 52.4902 28.1582ZM58.9326 28H60.4619V15.3174H58.9326V28ZM64.1357 22.9199V15.3174H62.6064V28H64.1357V24.5547L64.9883 23.7461L68.3809 28H70.1562L66.0693 22.8057L70.0332 18.8594H68.1787L64.1357 22.9199ZM75.4473 16.6533V18.8594H74.085V20.1162H75.4473V25.627C75.4473 27.3848 76.0977 28.0703 77.7764 28.0703C78.1367 28.0703 78.5586 28.0439 78.7432 28V26.7168C78.6377 26.7344 78.2861 26.7607 78.1104 26.7607C77.3281 26.7607 76.9766 26.3828 76.9766 25.5479V20.1162H78.752V18.8594H76.9766V16.6533H75.4473ZM83.9111 28.1582C86.4336 28.1582 88.1387 26.3389 88.1387 23.4297C88.1387 20.5117 86.4336 18.7012 83.9111 18.7012C81.3799 18.7012 79.6748 20.5117 79.6748 23.4297C79.6748 26.3389 81.3799 28.1582 83.9111 28.1582ZM83.9111 26.8135C82.2939 26.8135 81.2305 25.583 81.2305 23.4297C81.2305 21.2764 82.2939 20.0459 83.9111 20.0459C85.5283 20.0459 86.583 21.2764 86.583 23.4297C86.583 25.583 85.5283 26.8135 83.9111 26.8135ZM100.883 18.8594H99.3535V24.2295C99.3535 25.7852 98.457 26.8047 96.9717 26.8047C95.5566 26.8047 94.8623 26.0049 94.8623 24.5195V18.8594H93.333V24.792C93.333 26.8662 94.502 28.1582 96.4971 28.1582C97.9033 28.1582 98.8525 27.5693 99.3975 26.5146H99.4326V28H100.883V18.8594ZM102.711 21.3818C102.711 22.6299 103.502 23.4561 105.11 23.8691L106.719 24.2822C107.747 24.5547 108.125 24.9062 108.125 25.5566C108.125 26.3828 107.36 26.9102 106.121 26.9102C104.882 26.9102 104.161 26.4004 103.994 25.4512H102.465C102.623 27.0684 104.021 28.1582 106.024 28.1582C108.16 28.1582 109.663 27.0332 109.663 25.4424C109.663 24.0977 108.995 23.4297 107.149 22.9639L105.734 22.6211C104.697 22.3574 104.214 21.9355 104.214 21.3027C104.214 20.5029 104.952 19.9492 106.068 19.9492C107.193 19.9492 107.905 20.4941 108.011 21.373H109.47C109.399 19.8262 108.011 18.7012 106.121 18.7012C104.108 18.7012 102.711 19.8174 102.711 21.3818Z" fill="white"/>
</g>
</svg>
