<svg width="130" height="43" viewBox="0 0 130 43" fill="none" xmlns="http://www.w3.org/2000/svg">
<g id="Property 1=normal">
<rect id="Rectangle" width="130" height="43" rx="5" fill="url(#paint0_linear_16_161)"/>
<path id="Get a free trial" d="M24.9746 22.7529V21.5488H19.8154V22.9375H23.3926V23.166C23.3926 25.293 21.8457 26.752 19.5957 26.752C17.0117 26.752 15.4121 24.7744 15.4121 21.584C15.4121 18.4463 16.9854 16.5654 19.5957 16.5654C21.3799 16.5654 22.707 17.541 23.2344 19.2549H24.8955C24.4209 16.7324 22.3379 15.1064 19.5957 15.1064C16.0449 15.1064 13.7861 17.6289 13.7861 21.5928C13.7861 25.627 16.0537 28.2109 19.5957 28.2109C22.9795 28.2109 24.9746 26.1807 24.9746 22.7529ZM30.4326 20.0283C31.874 20.0283 32.832 21.1182 32.8672 22.6475H27.9014C27.998 21.127 29 20.0283 30.4326 20.0283ZM32.832 25.3809C32.5771 26.2422 31.7246 26.8311 30.5645 26.8311C28.9209 26.8311 27.8926 25.6797 27.8926 23.9307V23.8428H34.4492V23.2627C34.4492 20.4941 32.9287 18.7012 30.459 18.7012C27.9365 18.7012 26.3193 20.626 26.3193 23.4648C26.3193 26.3389 27.9102 28.1582 30.5293 28.1582C32.5244 28.1582 34.0713 26.9805 34.335 25.3809H32.832ZM36.4883 16.6533V18.8594H35.126V20.1162H36.4883V25.627C36.4883 27.3848 37.1387 28.0703 38.8174 28.0703C39.1777 28.0703 39.5996 28.0439 39.7842 28V26.7168C39.6787 26.7344 39.3271 26.7607 39.1514 26.7607C38.3691 26.7607 38.0176 26.3828 38.0176 25.5479V20.1162H39.793V18.8594H38.0176V16.6533H36.4883ZM48.1338 26.8574C47.0352 26.8574 46.3057 26.2861 46.3057 25.416C46.3057 24.5547 47.0088 24.0098 48.2393 23.9307L50.6826 23.7812V24.5283C50.6826 25.8467 49.5752 26.8574 48.1338 26.8574ZM47.791 28.1582C49.0215 28.1582 50.1816 27.4727 50.7266 26.4268H50.7617V28H52.2119V21.6807C52.2119 19.8613 50.8584 18.7012 48.7139 18.7012C46.5518 18.7012 45.1982 19.9141 45.0928 21.4961H46.5693C46.7627 20.5996 47.501 20.0459 48.6787 20.0459C49.9443 20.0459 50.6826 20.7139 50.6826 21.8301V22.5947L48.0635 22.7441C45.9541 22.8672 44.75 23.8516 44.75 25.416C44.75 27.0596 45.9717 28.1582 47.791 28.1582ZM58.3379 28H59.8672V20.1162H61.7305V18.8594H59.8584V17.8486C59.8584 16.9434 60.2539 16.5039 61.0801 16.5039C61.335 16.5039 61.5898 16.5303 61.7744 16.5566V15.3174C61.5547 15.2822 61.1855 15.2471 60.8428 15.2471C59.1553 15.2471 58.3379 16.082 58.3379 17.8398V18.8594H57.0635V20.1162H58.3379V28ZM63.3125 28H64.8418V22.3047C64.8418 21.0127 65.6152 20.1602 66.8018 20.1602C67.1709 20.1602 67.4961 20.2041 67.6191 20.248V18.7627C67.4961 18.7451 67.2676 18.7012 67.0039 18.7012C65.9316 18.7012 65.0879 19.3428 64.7891 20.3535H64.7539V18.8594H63.3125V28ZM72.0928 20.0283C73.5342 20.0283 74.4922 21.1182 74.5273 22.6475H69.5615C69.6582 21.127 70.6602 20.0283 72.0928 20.0283ZM74.4922 25.3809C74.2373 26.2422 73.3848 26.8311 72.2246 26.8311C70.5811 26.8311 69.5527 25.6797 69.5527 23.9307V23.8428H76.1094V23.2627C76.1094 20.4941 74.5889 18.7012 72.1191 18.7012C69.5967 18.7012 67.9795 20.626 67.9795 23.4648C67.9795 26.3389 69.5703 28.1582 72.1895 28.1582C74.1846 28.1582 75.7314 26.9805 75.9951 25.3809H74.4922ZM81.3213 20.0283C82.7627 20.0283 83.7207 21.1182 83.7559 22.6475H78.79C78.8867 21.127 79.8887 20.0283 81.3213 20.0283ZM83.7207 25.3809C83.4658 26.2422 82.6133 26.8311 81.4531 26.8311C79.8096 26.8311 78.7812 25.6797 78.7812 23.9307V23.8428H85.3379V23.2627C85.3379 20.4941 83.8174 18.7012 81.3477 18.7012C78.8252 18.7012 77.208 20.626 77.208 23.4648C77.208 26.3389 78.7988 28.1582 81.418 28.1582C83.4131 28.1582 84.96 26.9805 85.2236 25.3809H83.7207ZM91.0684 16.6533V18.8594H89.7061V20.1162H91.0684V25.627C91.0684 27.3848 91.7188 28.0703 93.3975 28.0703C93.7578 28.0703 94.1797 28.0439 94.3643 28V26.7168C94.2588 26.7344 93.9072 26.7607 93.7314 26.7607C92.9492 26.7607 92.5977 26.3828 92.5977 25.5479V20.1162H94.373V18.8594H92.5977V16.6533H91.0684ZM96.0078 28H97.5371V22.3047C97.5371 21.0127 98.3105 20.1602 99.4971 20.1602C99.8662 20.1602 100.191 20.2041 100.314 20.248V18.7627C100.191 18.7451 99.9629 18.7012 99.6992 18.7012C98.627 18.7012 97.7832 19.3428 97.4844 20.3535H97.4492V18.8594H96.0078V28ZM101.642 28H103.171V18.8594H101.642V28ZM102.406 17.3213C102.934 17.3213 103.364 16.8906 103.364 16.3721C103.364 15.8447 102.934 15.4229 102.406 15.4229C101.888 15.4229 101.457 15.8447 101.457 16.3721C101.457 16.8906 101.888 17.3213 102.406 17.3213ZM108.251 26.8574C107.152 26.8574 106.423 26.2861 106.423 25.416C106.423 24.5547 107.126 24.0098 108.356 23.9307L110.8 23.7812V24.5283C110.8 25.8467 109.692 26.8574 108.251 26.8574ZM107.908 28.1582C109.139 28.1582 110.299 27.4727 110.844 26.4268H110.879V28H112.329V21.6807C112.329 19.8613 110.976 18.7012 108.831 18.7012C106.669 18.7012 105.315 19.9141 105.21 21.4961H106.687C106.88 20.5996 107.618 20.0459 108.796 20.0459C110.062 20.0459 110.8 20.7139 110.8 21.8301V22.5947L108.181 22.7441C106.071 22.8672 104.867 23.8516 104.867 25.416C104.867 27.0596 106.089 28.1582 107.908 28.1582ZM114.351 28H115.88V15.3174H114.351V28Z" fill="white"/>
</g>
<defs>
<linearGradient id="paint0_linear_16_161" x1="65" y1="0" x2="65" y2="43" gradientUnits="userSpaceOnUse">
<stop stop-color="#C157AB"/>
<stop offset="1" stop-color="#FB85A1"/>
</linearGradient>
</defs>
</svg>
