<svg width="180" height="50" viewBox="0 0 180 50" fill="none" xmlns="http://www.w3.org/2000/svg">
<g id="podcast">
<rect id="Rectangle" width="180" height="50" rx="10" fill="#3531A9"/>
<g id="Group">
<path id="Apple podcasts" d="M49.8145 37H52.6357L48.2236 24.3174H45.1035L40.7002 37H43.4248L44.3916 33.9238H48.8477L49.8145 37ZM46.5889 26.7432H46.6504L48.2764 31.9375H44.9629L46.5889 26.7432ZM59.2188 27.4287C57.8564 27.4287 56.8105 28.1143 56.3008 29.2217H56.248V27.5781H53.7168V40.0762H56.2832V35.418H56.3359C56.8369 36.4814 57.8916 37.1494 59.2627 37.1494C61.6182 37.1494 63.0771 35.3213 63.0771 32.2891C63.0771 29.248 61.6094 27.4287 59.2188 27.4287ZM58.3574 35.084C57.1006 35.084 56.2744 33.9941 56.2744 32.2891C56.2744 30.6016 57.1006 29.4854 58.3574 29.4854C59.6406 29.4854 60.4492 30.584 60.4492 32.2891C60.4492 34.0029 59.6406 35.084 58.3574 35.084ZM69.9062 27.4287C68.5439 27.4287 67.498 28.1143 66.9883 29.2217H66.9355V27.5781H64.4043V40.0762H66.9707V35.418H67.0234C67.5244 36.4814 68.5791 37.1494 69.9502 37.1494C72.3057 37.1494 73.7646 35.3213 73.7646 32.2891C73.7646 29.248 72.2969 27.4287 69.9062 27.4287ZM69.0449 35.084C67.7881 35.084 66.9619 33.9941 66.9619 32.2891C66.9619 30.6016 67.7881 29.4854 69.0449 29.4854C70.3281 29.4854 71.1367 30.584 71.1367 32.2891C71.1367 34.0029 70.3281 35.084 69.0449 35.084ZM75.1533 37H77.7197V24.3174H75.1533V37ZM83.6787 29.2744C84.8213 29.2744 85.6035 30.1006 85.6562 31.3047H81.6572C81.7451 30.127 82.5537 29.2744 83.6787 29.2744ZM85.6914 34.1172C85.4541 34.8379 84.7334 35.3037 83.793 35.3037C82.4834 35.3037 81.6309 34.3809 81.6309 33.0361V32.8779H88.126V32.0957C88.126 29.2305 86.3945 27.376 83.6523 27.376C80.8662 27.376 79.1084 29.3271 79.1084 32.333C79.1084 35.3477 80.8486 37.2021 83.749 37.2021C86.0781 37.2021 87.7656 35.9629 88.0469 34.1172H85.6914ZM98.5234 27.4287C97.1611 27.4287 96.1152 28.1143 95.6055 29.2217H95.5527V27.5781H93.0215V40.0762H95.5879V35.418H95.6406C96.1416 36.4814 97.1963 37.1494 98.5674 37.1494C100.923 37.1494 102.382 35.3213 102.382 32.2891C102.382 29.248 100.914 27.4287 98.5234 27.4287ZM97.6621 35.084C96.4053 35.084 95.5791 33.9941 95.5791 32.2891C95.5791 30.6016 96.4053 29.4854 97.6621 29.4854C98.9453 29.4854 99.7539 30.584 99.7539 32.2891C99.7539 34.0029 98.9453 35.084 97.6621 35.084ZM108.033 37.2021C110.881 37.2021 112.7 35.3828 112.7 32.2803C112.7 29.2217 110.854 27.376 108.033 27.376C105.212 27.376 103.366 29.2305 103.366 32.2803C103.366 35.374 105.186 37.2021 108.033 37.2021ZM108.033 35.2422C106.768 35.2422 105.968 34.1787 105.968 32.2891C105.968 30.417 106.785 29.3359 108.033 29.3359C109.281 29.3359 110.09 30.417 110.09 32.2891C110.09 34.1787 109.29 35.2422 108.033 35.2422ZM117.525 37.1494C118.914 37.1494 120.004 36.4199 120.461 35.3828H120.505V37H123.036V24.3174H120.47V29.1953H120.417C119.96 28.1494 118.905 27.4287 117.543 27.4287C115.179 27.4287 113.685 29.2832 113.685 32.2715C113.685 35.2861 115.17 37.1494 117.525 37.1494ZM118.396 29.4854C119.67 29.4854 120.487 30.5752 120.487 32.2891C120.487 34.0117 119.67 35.084 118.396 35.084C117.104 35.084 116.312 34.0205 116.312 32.2891C116.312 30.5664 117.104 29.4854 118.396 29.4854ZM133.311 31.085C133.196 28.9492 131.579 27.376 129.03 27.376C126.209 27.376 124.407 29.2568 124.407 32.2803C124.407 35.3564 126.209 37.2021 129.048 37.2021C131.526 37.2021 133.188 35.7695 133.319 33.5459H130.929C130.771 34.5742 130.103 35.1895 129.074 35.1895C127.8 35.1895 127.009 34.1348 127.009 32.2803C127.009 30.4609 127.8 29.3887 129.065 29.3887C130.12 29.3887 130.779 30.0918 130.929 31.085H133.311ZM138.197 35.2949C137.327 35.2949 136.747 34.8555 136.747 34.1523C136.747 33.4844 137.292 33.0537 138.25 32.9834L140.236 32.8604V33.5459C140.236 34.5654 139.313 35.2949 138.197 35.2949ZM137.354 37.1494C138.531 37.1494 139.7 36.5605 140.228 35.5586H140.28V37H142.759V30.5225C142.759 28.624 141.186 27.376 138.769 27.376C136.272 27.376 134.717 28.6328 134.62 30.4609H136.967C137.09 29.7666 137.696 29.292 138.654 29.292C139.621 29.292 140.236 29.8018 140.236 30.6807V31.3047L137.863 31.4453C135.517 31.5859 134.198 32.5791 134.198 34.293C134.198 35.9893 135.561 37.1494 137.354 37.1494ZM144.262 30.3467C144.262 31.7354 145.176 32.667 146.96 33.0713L148.7 33.458C149.544 33.6602 149.86 33.9238 149.86 34.3984C149.86 35.0137 149.271 35.4004 148.296 35.4004C147.276 35.4004 146.652 34.9434 146.529 34.1523H144.024C144.165 35.9893 145.712 37.2021 148.226 37.2021C150.713 37.2021 152.418 35.9805 152.418 34.126C152.418 32.7197 151.653 31.9727 149.764 31.5508L147.962 31.1641C147.136 30.9707 146.731 30.6543 146.731 30.1885C146.731 29.582 147.312 29.1777 148.199 29.1777C149.148 29.1777 149.755 29.6436 149.808 30.3994H152.172C152.137 28.5713 150.599 27.376 148.234 27.376C145.817 27.376 144.262 28.5537 144.262 30.3467ZM154.387 25.4072V27.5781H153.06V29.5117H154.387V34.46C154.387 36.2969 155.248 37.0352 157.463 37.0352C157.981 37.0352 158.421 36.9912 158.685 36.9297V35.04C158.526 35.0664 158.289 35.084 158.061 35.084C157.305 35.084 156.953 34.7412 156.953 34.0205V29.5117H158.693V27.5781H156.953V25.4072H154.387ZM159.941 30.3467C159.941 31.7354 160.855 32.667 162.64 33.0713L164.38 33.458C165.224 33.6602 165.54 33.9238 165.54 34.3984C165.54 35.0137 164.951 35.4004 163.976 35.4004C162.956 35.4004 162.332 34.9434 162.209 34.1523H159.704C159.845 35.9893 161.392 37.2021 163.905 37.2021C166.393 37.2021 168.098 35.9805 168.098 34.126C168.098 32.7197 167.333 31.9727 165.443 31.5508L163.642 31.1641C162.815 30.9707 162.411 30.6543 162.411 30.1885C162.411 29.582 162.991 29.1777 163.879 29.1777C164.828 29.1777 165.435 29.6436 165.487 30.3994H167.852C167.816 28.5713 166.278 27.376 163.914 27.376C161.497 27.376 159.941 28.5537 159.941 30.3467Z" fill="white"/>
<path id="We are now available on" d="M47.8379 13.625H47.8965L49.7246 20H50.9609L53.2461 11.5449H51.8809L50.3164 18.166H50.2695L48.4766 11.5449H47.2578L45.4707 18.166H45.4238L43.8594 11.5449H42.4941L44.7734 20H46.0156L47.8379 13.625ZM56.0469 14.7441C56.9316 14.7441 57.5293 15.4062 57.5586 16.3496H54.4766C54.541 15.418 55.1621 14.7441 56.0469 14.7441ZM57.5527 18.1895C57.3828 18.7285 56.8496 19.0918 56.1289 19.0918C55.1152 19.0918 54.4707 18.3828 54.4707 17.3105V17.2344H58.8242V16.8008C58.8242 14.9316 57.7578 13.7246 56.0469 13.7246C54.3066 13.7246 53.1934 15.0137 53.1934 16.9473C53.1934 18.8926 54.2891 20.1172 56.0996 20.1172C57.5117 20.1172 58.5781 19.3145 58.7539 18.1895H57.5527ZM64.4023 19.1035C63.7227 19.1035 63.2773 18.752 63.2773 18.2129C63.2773 17.6855 63.7051 17.3516 64.4609 17.2988L65.9785 17.2051V17.6914C65.9785 18.4941 65.2871 19.1035 64.4023 19.1035ZM64.0508 20.1055C64.8594 20.1055 65.6387 19.6719 65.9961 18.9863H66.0254V20H67.2383V15.752C67.2383 14.5156 66.2832 13.7246 64.7891 13.7246C63.2656 13.7246 62.3164 14.5449 62.2461 15.6582H63.4414C63.5527 15.1074 64.0098 14.7559 64.7422 14.7559C65.5156 14.7559 65.9785 15.166 65.9785 15.8516V16.3262L64.291 16.4258C62.8262 16.5078 62 17.1699 62 18.248C62 19.3555 62.8438 20.1055 64.0508 20.1055ZM68.4688 20H69.7344V16.3086C69.7344 15.4355 70.2383 14.8906 71.0527 14.8906C71.2988 14.8906 71.5215 14.9199 71.6211 14.9609V13.7832C71.5273 13.7656 71.3691 13.7363 71.1875 13.7363C70.4609 13.7363 69.9102 14.1641 69.7051 14.8848H69.6758V13.8359H68.4688V20ZM74.7148 14.7441C75.5996 14.7441 76.1973 15.4062 76.2266 16.3496H73.1445C73.209 15.418 73.8301 14.7441 74.7148 14.7441ZM76.2207 18.1895C76.0508 18.7285 75.5176 19.0918 74.7969 19.0918C73.7832 19.0918 73.1387 18.3828 73.1387 17.3105V17.2344H77.4922V16.8008C77.4922 14.9316 76.4258 13.7246 74.7148 13.7246C72.9746 13.7246 71.8613 15.0137 71.8613 16.9473C71.8613 18.8926 72.957 20.1172 74.7676 20.1172C76.1797 20.1172 77.2461 19.3145 77.4219 18.1895H76.2207ZM80.9141 20H82.1797V16.4082C82.1797 15.4531 82.7539 14.8203 83.6445 14.8203C84.5234 14.8203 84.957 15.3301 84.957 16.2559V20H86.2285V16.0098C86.2285 14.5977 85.4492 13.7305 84.0898 13.7305C83.1406 13.7305 82.4844 14.1641 82.1504 14.8672H82.1211V13.8359H80.9141V20ZM90.1016 20.1172C91.8652 20.1172 93.0254 18.9043 93.0254 16.918C93.0254 14.9375 91.8594 13.7246 90.1016 13.7246C88.3438 13.7246 87.1777 14.9375 87.1777 16.918C87.1777 18.9043 88.3379 20.1172 90.1016 20.1172ZM90.1016 19.0742C89.1113 19.0742 88.4668 18.2891 88.4668 16.918C88.4668 15.5527 89.1113 14.7676 90.1016 14.7676C91.0918 14.7676 91.7363 15.5527 91.7363 16.918C91.7363 18.2891 91.0977 19.0742 90.1016 19.0742ZM102.113 13.8359H100.859L99.7344 18.6875H99.7051L98.416 13.8359H97.1973L95.9141 18.6875H95.8906L94.7656 13.8359H93.5L95.1934 20H96.5L97.7832 15.3828H97.8125L99.1074 20H100.426L102.113 13.8359ZM107.48 19.1035C106.801 19.1035 106.355 18.752 106.355 18.2129C106.355 17.6855 106.783 17.3516 107.539 17.2988L109.057 17.2051V17.6914C109.057 18.4941 108.365 19.1035 107.48 19.1035ZM107.129 20.1055C107.938 20.1055 108.717 19.6719 109.074 18.9863H109.104V20H110.316V15.752C110.316 14.5156 109.361 13.7246 107.867 13.7246C106.344 13.7246 105.395 14.5449 105.324 15.6582H106.52C106.631 15.1074 107.088 14.7559 107.82 14.7559C108.594 14.7559 109.057 15.166 109.057 15.8516V16.3262L107.369 16.4258C105.904 16.5078 105.078 17.1699 105.078 18.248C105.078 19.3555 105.922 20.1055 107.129 20.1055ZM116.809 13.8359H115.484L113.938 18.7637H113.914L112.367 13.8359H111.02L113.24 20H114.6L116.809 13.8359ZM119.562 19.1035C118.883 19.1035 118.438 18.752 118.438 18.2129C118.438 17.6855 118.865 17.3516 119.621 17.2988L121.139 17.2051V17.6914C121.139 18.4941 120.447 19.1035 119.562 19.1035ZM119.211 20.1055C120.02 20.1055 120.799 19.6719 121.156 18.9863H121.186V20H122.398V15.752C122.398 14.5156 121.443 13.7246 119.949 13.7246C118.426 13.7246 117.477 14.5449 117.406 15.6582H118.602C118.713 15.1074 119.17 14.7559 119.902 14.7559C120.676 14.7559 121.139 15.166 121.139 15.8516V16.3262L119.451 16.4258C117.986 16.5078 117.16 17.1699 117.16 18.248C117.16 19.3555 118.004 20.1055 119.211 20.1055ZM123.67 20H124.936V13.8359H123.67V20ZM124.303 12.9336C124.713 12.9336 125.041 12.6113 125.041 12.2129C125.041 11.8086 124.713 11.4863 124.303 11.4863C123.898 11.4863 123.57 11.8086 123.57 12.2129C123.57 12.6113 123.898 12.9336 124.303 12.9336ZM126.277 20H127.543V11.5449H126.277V20ZM131 19.1035C130.32 19.1035 129.875 18.752 129.875 18.2129C129.875 17.6855 130.303 17.3516 131.059 17.2988L132.576 17.2051V17.6914C132.576 18.4941 131.885 19.1035 131 19.1035ZM130.648 20.1055C131.457 20.1055 132.236 19.6719 132.594 18.9863H132.623V20H133.836V15.752C133.836 14.5156 132.881 13.7246 131.387 13.7246C129.863 13.7246 128.914 14.5449 128.844 15.6582H130.039C130.15 15.1074 130.607 14.7559 131.34 14.7559C132.113 14.7559 132.576 15.166 132.576 15.8516V16.3262L130.889 16.4258C129.424 16.5078 128.598 17.1699 128.598 18.248C128.598 19.3555 129.441 20.1055 130.648 20.1055ZM138.348 20.1055C139.912 20.1055 140.92 18.875 140.92 16.918C140.92 14.9668 139.906 13.7363 138.354 13.7363C137.48 13.7363 136.777 14.1699 136.408 14.8848H136.379V11.5449H135.113V20H136.344V18.9512H136.367C136.748 19.666 137.445 20.1055 138.348 20.1055ZM138.008 14.8027C139.004 14.8027 139.619 15.623 139.619 16.918C139.619 18.2246 139.004 19.0332 138.008 19.0332C137.047 19.0332 136.373 18.2012 136.373 16.918C136.373 15.6465 137.047 14.8027 138.008 14.8027ZM141.957 20H143.223V11.5449H141.957V20ZM147.102 14.7441C147.986 14.7441 148.584 15.4062 148.613 16.3496H145.531C145.596 15.418 146.217 14.7441 147.102 14.7441ZM148.607 18.1895C148.438 18.7285 147.904 19.0918 147.184 19.0918C146.17 19.0918 145.525 18.3828 145.525 17.3105V17.2344H149.879V16.8008C149.879 14.9316 148.812 13.7246 147.102 13.7246C145.361 13.7246 144.248 15.0137 144.248 16.9473C144.248 18.8926 145.344 20.1172 147.154 20.1172C148.566 20.1172 149.633 19.3145 149.809 18.1895H148.607ZM155.949 20.1172C157.713 20.1172 158.873 18.9043 158.873 16.918C158.873 14.9375 157.707 13.7246 155.949 13.7246C154.191 13.7246 153.025 14.9375 153.025 16.918C153.025 18.9043 154.186 20.1172 155.949 20.1172ZM155.949 19.0742C154.959 19.0742 154.314 18.2891 154.314 16.918C154.314 15.5527 154.959 14.7676 155.949 14.7676C156.939 14.7676 157.584 15.5527 157.584 16.918C157.584 18.2891 156.945 19.0742 155.949 19.0742ZM159.852 20H161.117V16.4082C161.117 15.4531 161.691 14.8203 162.582 14.8203C163.461 14.8203 163.895 15.3301 163.895 16.2559V20H165.166V16.0098C165.166 14.5977 164.387 13.7305 163.027 13.7305C162.078 13.7305 161.422 14.1641 161.088 14.8672H161.059V13.8359H159.852V20Z" fill="white"/>
</g>
<g id="Frame" clip-path="url(#clip0_14_130)">
<path id="Vector" d="M17.34 13C16.6382 12.998 15.9429 13.1348 15.2942 13.4024C14.6454 13.6701 14.0559 14.0634 13.5597 14.5596C13.0634 15.0559 12.6701 15.6454 12.4025 16.2941C12.1348 16.9429 11.998 17.6382 12 18.34V31.66C11.998 32.3618 12.1348 33.0571 12.4025 33.7059C12.6701 34.3546 13.0634 34.9441 13.5597 35.4404C14.0559 35.9366 14.6454 36.3299 15.2942 36.5975C15.9429 36.8652 16.6382 37.002 17.34 37H30.66C31.3618 37.002 32.0571 36.8652 32.7059 36.5975C33.3547 36.3299 33.9441 35.9366 34.4404 35.4404C34.9366 34.9441 35.3299 34.3546 35.5976 33.7059C35.8652 33.0571 36.002 32.3618 36 31.66V18.34C36.002 17.6382 35.8652 16.9429 35.5976 16.2941C35.3299 15.6454 34.9366 15.0559 34.4404 14.5596C33.9441 14.0634 33.3547 13.6701 32.7059 13.4024C32.0571 13.1348 31.3618 12.998 30.66 13H17.34ZM23.8628 15.5657C26.199 15.5657 28.3118 16.4687 29.922 18.1555C31.1453 19.4252 31.8323 20.7722 32.184 22.5467C32.3048 23.137 32.3048 24.7457 32.1908 25.4095C31.8173 27.52 30.661 29.4119 28.953 30.7067C28.344 31.168 26.8553 31.969 26.6168 31.969C26.5268 31.969 26.52 31.879 26.559 31.5077C26.6333 30.9137 26.703 30.793 27.039 30.652C27.5738 30.43 28.488 29.7767 29.0468 29.2187C30.0236 28.2422 30.7175 27.019 31.0545 25.6795C31.2653 24.8545 31.2375 23.0222 31.0073 22.1755C30.2805 19.4792 28.077 17.3867 25.3823 16.8235C24.6015 16.6637 23.175 16.6637 22.3823 16.8235C19.6553 17.3867 17.397 19.5857 16.71 22.3517C16.5263 23.1047 16.5263 24.9377 16.71 25.6877C17.1668 27.52 18.351 29.1985 19.9013 30.199C20.2065 30.4022 20.5733 30.6092 20.7263 30.6722C21.0615 30.8162 21.1365 30.9385 21.198 31.5272C21.237 31.891 21.2288 31.9922 21.144 31.9922C21.0893 31.9922 20.679 31.816 20.2448 31.609L20.2058 31.5782C17.733 30.3632 16.1505 28.3052 15.573 25.5662C15.4328 24.859 15.405 23.176 15.546 22.5272C15.9053 20.785 16.593 19.426 17.7368 18.223C19.386 16.4837 21.507 15.5657 23.8658 15.5657H23.8628ZM24 18.379C24.3708 18.3781 24.7408 18.4133 25.1048 18.484C27.891 19.105 29.8628 21.8912 29.4795 24.6557C29.3273 25.7725 28.9448 26.6875 28.2653 27.5387C27.9293 27.9685 27.1125 28.6877 26.9685 28.6877C26.9445 28.6877 26.9213 28.414 26.9213 28.0855V27.4795L27.3353 26.9837C28.905 25.105 28.7925 22.48 27.081 20.7617C26.4173 20.0897 25.647 19.6945 24.6548 19.516C24.015 19.3952 23.8815 19.3952 23.2095 19.5077C22.1865 19.672 21.3968 20.0657 20.6933 20.7617C18.975 22.465 18.861 25.105 20.4323 26.9837L20.8463 27.4795V28.0892C20.8463 28.4252 20.8185 28.6945 20.7833 28.6945C20.7563 28.6945 20.5215 28.5347 20.271 28.3352L20.2358 28.3232C19.404 27.6595 18.6698 26.4835 18.3645 25.327C18.1815 24.628 18.1815 23.3042 18.3728 22.6082C18.8768 20.7295 20.2635 19.2722 22.182 18.589C22.5923 18.4442 23.3138 18.3662 23.994 18.3782L24 18.379ZM23.8673 21.367C24.18 21.367 24.4883 21.43 24.7155 21.547C25.1993 21.8012 25.6028 22.2887 25.7543 22.8047C26.2193 24.3827 24.5475 25.7657 23.031 25.0585H23.0198C22.305 24.7262 21.9218 24.1015 21.9135 23.2885C21.9135 22.5542 22.3193 21.9175 23.0265 21.5425C23.2493 21.4255 23.5583 21.3662 23.8703 21.3662L23.8673 21.367ZM23.859 26.098C24.8483 26.0942 25.5623 26.4452 25.8278 27.0662C26.0265 27.5312 25.953 28.996 25.6088 31.3675C25.3785 33.0235 25.2495 33.4412 24.93 33.7232C24.4883 34.1132 23.8673 34.2235 23.2733 34.012H23.2703C22.5555 33.754 22.4025 33.406 22.1055 31.3667C21.7665 28.996 21.6915 27.5305 21.8918 27.0655C22.1528 26.4482 22.8638 26.1017 23.8598 26.0972L23.859 26.098Z" fill="white"/>
</g>
</g>
<defs>
<clipPath id="clip0_14_130">
<rect width="24" height="24" fill="white" transform="translate(12 13)"/>
</clipPath>
</defs>
</svg>
